<svg width="131" height="205" viewBox="0 0 131 205" fill="none" xmlns="http://www.w3.org/2000/svg">
<path d="M6.53764 6.61719H8.3125C8.2777 4.89702 6.81108 3.67898 4.64347 3.67898C2.50568 3.67898 0.899858 4.8821 0.90483 6.68182C0.90483 8.14347 1.94389 8.98366 3.61932 9.41619L4.7777 9.71449C5.87642 9.9929 6.60227 10.3359 6.60724 11.1264C6.60227 11.9964 5.77699 12.5781 4.57386 12.5781C3.42045 12.5781 2.52557 12.0611 2.45099 10.9922H0.636364C0.710938 13.0156 2.21733 14.1541 4.58878 14.1541C7.02983 14.1541 8.44673 12.9361 8.4517 11.1413C8.44673 9.37642 6.99006 8.57102 5.45881 8.2081L4.50426 7.96946C3.66903 7.7706 2.7642 7.41761 2.77415 6.56747C2.77912 5.80185 3.4652 5.24006 4.61861 5.24006C5.71733 5.24006 6.44318 5.75213 6.53764 6.61719ZM11.4961 14H13.3405V9.67472H18.0586V14H19.908V3.81818H18.0586V8.12855H13.3405V3.81818H11.4961V14ZM24.6216 14L25.4618 11.4893H29.2899L30.135 14H32.1038L28.5143 3.81818H26.2373L22.6528 14H24.6216ZM25.9589 10.0078L27.336 5.90625H27.4156L28.7927 10.0078H25.9589ZM34.8449 14H36.6893V10.2713H38.5686L40.5672 14H42.6254L40.423 9.96307C41.6212 9.48082 42.2526 8.45668 42.2526 7.07457C42.2526 5.13068 40.9997 3.81818 38.6631 3.81818H34.8449V14ZM36.6893 8.74006V5.35938H38.3797C39.7568 5.35938 40.3733 5.99077 40.3733 7.07457C40.3733 8.15838 39.7568 8.74006 38.3896 8.74006H36.6893ZM45.3504 14H52.0123V12.4538H47.1948V9.67472H51.6295V8.12855H47.1948V5.36435H51.9725V3.81818H45.3504V14ZM59.6795 5.36435H62.8265V14H64.656V5.36435H67.8031V3.81818H59.6795V5.36435ZM70.7691 14H72.6136V9.67472H77.3316V14H79.181V3.81818H77.3316V8.12855H72.6136V3.81818H70.7691V14ZM84.4315 3.81818H82.5871V14H84.4315V3.81818ZM93.3622 6.61719H95.1371C95.1023 4.89702 93.6357 3.67898 91.4681 3.67898C89.3303 3.67898 87.7245 4.8821 87.7294 6.68182C87.7294 8.14347 88.7685 8.98366 90.4439 9.41619L91.6023 9.71449C92.701 9.9929 93.4269 10.3359 93.4319 11.1264C93.4269 11.9964 92.6016 12.5781 91.3985 12.5781C90.2451 12.5781 89.3502 12.0611 89.2756 10.9922H87.461C87.5355 13.0156 89.0419 14.1541 91.4134 14.1541C93.8544 14.1541 95.2713 12.9361 95.2763 11.1413C95.2713 9.37642 93.8147 8.57102 92.2834 8.2081L91.3289 7.96946C90.4936 7.7706 89.5888 7.41761 89.5988 6.56747C89.6037 5.80185 90.2898 5.24006 91.4432 5.24006C92.5419 5.24006 93.2678 5.75213 93.3622 6.61719ZM112.291 8.90909C112.291 5.6179 110.283 3.67898 107.613 3.67898C104.938 3.67898 102.935 5.6179 102.935 8.90909C102.935 12.1953 104.938 14.1392 107.613 14.1392C110.283 14.1392 112.291 12.2003 112.291 8.90909ZM110.437 8.90909C110.437 11.2259 109.274 12.4837 107.613 12.4837C105.958 12.4837 104.789 11.2259 104.789 8.90909C104.789 6.59233 105.958 5.33452 107.613 5.33452C109.274 5.33452 110.437 6.59233 110.437 8.90909ZM123.802 3.81818H121.968V10.7585H121.878L117.086 3.81818H115.435V14H117.28V7.06463H117.364L122.162 14H123.802V3.81818ZM128.241 12.777C128.828 12.777 129.33 12.2898 129.335 11.6832C129.33 11.0866 128.828 10.5994 128.241 10.5994C127.635 10.5994 127.142 11.0866 127.147 11.6832C127.142 12.2898 127.635 12.777 128.241 12.777ZM128.241 7.72585C128.828 7.72585 129.33 7.23864 129.335 6.6321C129.33 6.03551 128.828 5.5483 128.241 5.5483C127.635 5.5483 127.142 6.03551 127.147 6.6321C127.142 7.23864 127.635 7.72585 128.241 7.72585Z" fill="black"/>
<path d="M68.1116 52.2951H69.9233V49.1397C69.6107 49.0967 68.5358 49 67.2839 49C64.6718 49 62.8825 50.643 62.8825 53.6627V56.4419H60V59.9693H62.8825V68.845H66.4165V59.9701H69.1824L69.6215 56.4427H66.4157V54.0125C66.4165 52.993 66.6911 52.2951 68.1116 52.2951Z" fill="black"/>
<path d="M76 118.961C75.1819 119.32 74.3101 119.558 73.4013 119.673C74.3363 119.115 75.0499 118.238 75.3854 117.18C74.5136 117.7 73.5511 118.067 72.5254 118.272C71.6976 117.391 70.5179 116.845 69.2309 116.845C66.7339 116.845 64.7236 118.872 64.7236 121.356C64.7236 121.714 64.7539 122.058 64.8281 122.385C61.0785 122.202 57.7606 120.405 55.5317 117.667C55.1426 118.342 54.9144 119.115 54.9144 119.947C54.9144 121.509 55.7187 122.894 56.9177 123.695C56.1931 123.681 55.4822 123.471 54.88 123.14C54.88 123.153 54.88 123.171 54.88 123.189C54.88 125.381 56.4434 127.201 58.4935 127.621C58.1264 127.721 57.7263 127.769 57.311 127.769C57.0223 127.769 56.7307 127.753 56.4571 127.692C57.0415 129.478 58.6997 130.792 60.6715 130.834C59.137 132.035 57.1886 132.758 55.0794 132.758C54.7095 132.758 54.3548 132.741 54 132.696C55.9979 133.984 58.3656 134.72 60.919 134.72C69.2185 134.72 73.756 127.845 73.756 121.886C73.756 121.686 73.7491 121.494 73.7395 121.303C74.6346 120.667 75.3867 119.874 76 118.961Z" fill="black"/>
<path fill-rule="evenodd" clip-rule="evenodd" d="M60.875 182.72H69.125C72.9214 182.72 76 185.799 76 189.595V197.845C76 201.641 72.9214 204.72 69.125 204.72H60.875C57.0786 204.72 54 201.641 54 197.845V189.595C54 185.799 57.0786 182.72 60.875 182.72ZM69.125 202.657C71.7787 202.657 73.9375 200.499 73.9375 197.845V189.595C73.9375 186.941 71.7787 184.782 69.125 184.782H60.875C58.2213 184.782 56.0625 186.941 56.0625 189.595V197.845C56.0625 200.499 58.2213 202.657 60.875 202.657H69.125Z" fill="black"/>
<path fill-rule="evenodd" clip-rule="evenodd" d="M59.5 193.72C59.5 190.683 61.9626 188.22 65 188.22C68.0374 188.22 70.5 190.683 70.5 193.72C70.5 196.757 68.0374 199.22 65 199.22C61.9626 199.22 59.5 196.757 59.5 193.72ZM61.5625 193.72C61.5625 195.615 63.1052 197.157 65 197.157C66.8948 197.157 68.4375 195.615 68.4375 193.72C68.4375 191.824 66.8948 190.282 65 190.282C63.1052 190.282 61.5625 191.824 61.5625 193.72Z" fill="black"/>
<circle cx="70.9126" cy="187.807" r="0.732875" fill="black"/>
</svg>
